Coordinates
version=1
nRows=5
nColumns=40
inDegrees=yes

Units are S.I. units (second, meters, Newtons, ...)
If the header above contains a line with 'inDegrees', this indicates whether rotational values are in degrees (yes) or radians (no).

endheader
time	pelvis_tilt	pelvis_list	pelvis_rotation	pelvis_tx	pelvis_ty	pelvis_tz	hip_flexion_r	hip_adduction_r	hip_rotation_r	knee_angle_r	knee_angle_r_beta	ankle_angle_r	subtalar_angle_r	mtp_angle_r	hip_flexion_l	hip_adduction_l	hip_rotation_l	knee_angle_l	knee_angle_l_beta	ankle_angle_l	subtalar_angle_l	mtp_angle_l	lumbar_extension	lumbar_bending	lumbar_rotation	arm_flex_r	arm_add_r	arm_rot_r	elbow_flex_r	pro_sup_r	wrist_flex_r	wrist_dev_r	arm_flex_l	arm_add_l	arm_rot_l	elbow_flex_l	pro_sup_l	wrist_flex_l	wrist_dev_l
      1.12000000	     -2.46758942	      8.73711600	    -89.77719841	      0.22680426	      0.90874272	     -0.61574784	     -6.30894733	      6.18191192	     -1.91150504	      4.77304438	      0.08330534	     12.17182003	      0.00000000	     -0.00000000	     32.43733135	     -1.35540624	     -1.11856669	      2.51896966	      0.04396431	     -1.28709854	     -0.00000000	      0.00000000	      4.13666772	      1.91340809	     -1.00347053	     -0.00000000	     -0.00000000	     -0.00000000	      0.00000000	      0.00000000	     -0.00000000	     -0.00000000	     -0.00000000	      0.00000000	     -0.00000000	      0.00000000	      0.00000000	      0.00000000	     -0.00000000
      1.13000000	     -2.17881442	      8.81965615	    -89.78497560	      0.22807991	      0.90778760	     -0.60666807	     -6.59911831	      5.76863100	     -2.01503122	      5.24613429	      0.09156232	     12.46102477	      0.00000000	      0.00000000	     32.51150886	     -1.00923931	     -1.43366441	      3.18977592	      0.05567209	     -1.86818444	      0.00000000	      0.00000000	      4.28817457	      1.50694486	     -1.04974158	      0.00000000	      0.00000000	      0.00000000	      0.00000000	      0.00000000	      0.00000000	      0.00000000	      0.00000000	      0.00000000	      0.00000000	      0.00000000	      0.00000000	      0.00000000	      0.00000000
      1.14000000	     -1.93401909	      8.92421497	    -89.79052838	      0.22937942	      0.90690004	     -0.59757797	     -6.82381378	      5.40275341	     -2.06292458	      5.78572246	      0.10097991	     12.50783067	      0.00000000	      0.00000000	     32.59559459	     -0.69833380	     -1.51842228	      3.93393649	      0.06866014	     -2.44435707	      0.00000000	      0.00000000	      4.46006351	      1.13363004	     -1.07962102	      0.00000000	      0.00000000	      0.00000000	      0.00000000	      0.00000000	      0.00000000	      0.00000000	      0.00000000	      0.00000000	      0.00000000	      0.00000000	      0.00000000	      0.00000000	      0.00000000
      1.15000000	     -1.60651715	      8.97271195	    -89.80043577	      0.23074042	      0.90621093	     -0.58836363	     -6.96623861	      4.91539220	     -2.34979505	      6.59741424	      0.11514660	     12.79500283	      0.00000000	      0.00000000	     32.64947265	     -0.33836185	     -2.12150003	      4.80788837	      0.08391348	     -3.17651362	      0.00000000	      0.00000000	      4.57747167	      0.67324453	     -1.12158832	      0.00000000	      0.00000000	      0.00000000	      0.00000000	      0.00000000	      0.00000000	      0.00000000	      0.00000000	      0.00000000	      0.00000000	      0.00000000	      0.00000000	      0.00000000	      0.00000000
      1.16000000	     -1.33987043	      9.04003294	    -89.80551223	      0.23215101	      0.90561583	     -0.57911490	     -7.05784707	      4.49017661	     -2.53296878	      7.45039586	      0.13003394	     12.74074609	      0.00000000	      0.00000000	     32.69529722	     -0.02214364	     -2.35530263	      5.71366939	      0.09972234	     -3.87009151	      0.00000000	      0.00000000	      4.71479622	      0.29467894	     -1.15633156	      0.00000000	      0.00000000	      0.00000000	      0.00000000	      0.00000000	      0.00000000	      0.00000000	      0.00000000	      0.00000000	      0.00000000	      0.00000000	      0.00000000	      0.00000000	      0.00000000
